<?xml version="1.0" ?><svg id="Layer_2" style="enable-background:new 0 0 1000 1000;" version="1.1" viewBox="0 0 1000 1000" xml:space="preserve" xmlns="http://www.w3.org/2000/svg" xmlns:xlink="http://www.w3.org/1999/xlink"><path d="M255.893,519.083c-13.667,0-24.749,11.082-24.749,24.75c0,1.573,0.146,3.113,0.428,4.607  c0.374,1.997,0.991,3.908,1.818,5.706c0.396,0.859,0.834,1.693,1.327,2.496c4.332,7.16,12.198,11.945,21.177,11.945  c8.982,0,16.848-4.785,21.181-11.945c0.489-0.803,0.931-1.637,1.327-2.496c0.827-1.797,1.444-3.708,1.818-5.706  c0.282-1.494,0.428-3.034,0.428-4.607C280.646,530.166,269.564,519.083,255.893,519.083z" style="fill:#231F20;"/><path d="M731.982,519.083c-13.668,0-24.75,11.082-24.75,24.75c0,1.573,0.146,3.113,0.428,4.607  c0.375,1.997,0.991,3.908,1.818,5.706c0.396,0.859,0.834,1.693,1.327,2.496c4.332,7.16,12.198,11.945,21.177,11.945  c8.982,0,16.848-4.785,21.181-11.945c0.489-0.803,0.931-1.637,1.327-2.496c0.827-1.797,1.444-3.708,1.818-5.706  c0.282-1.494,0.428-3.034,0.428-4.607C756.736,530.166,745.654,519.083,731.982,519.083z" style="fill:#231F20;"/><path d="M416.441,472.89c-9.685,3.594-19.698,7.311-27.12,19.015c-8.995,14.184-10.501,29.074-10.18,39.068  c0.081,2.549,2.147,4.546,4.703,4.546h166.591c0.584,0,1.148-0.104,1.676-0.308c8.475-3.278,51.257-21.156,61.175-51.19  c3.567-10.801,0.872-23.523-4.444-35.727c-4.143,2.813-9.038,4.606-14.442,4.936l-9.898,0.602l2.231-25.884  c0.311-3.602-2.53-6.697-6.145-6.697c-12.344,0-23.542,7.231-28.62,18.482l-7.461,16.529l-109.419,6.648  C429.807,467.929,422.856,470.508,416.441,472.89z" style="fill:#231F20;"/><path d="M844.229,527.67c3.56-9.76,4.49-20.35,2.68-30.62c-3.63-20.63-16.36-38.23-34.33-47.44  c-2.241-1.148-4.525-2.197-6.844-3.15l4.453-18.774c4.872-0.314,9.463-2.454,12.81-6.052l11.427-12.284  c1.098-1.18,0.261-3.101-1.35-3.101h-25.913c-5.327,0-10.414,2.215-14.042,6.116l-11.427,12.284c-1.098,1.18-0.261,3.101,1.35,3.101  h10.684l-5.455,13.529c-1.272-0.24-2.55-0.456-3.833-0.639l-98.15-13.99c-4.12-0.59-8.05-2.2-11.47-4.69l-9.92-7.24  c-4.46-3.25-9.67-5.19-15.08-5.6l-26.729-2.06c-1.9-0.14-3.3,1.84-2.61,3.7c2.823,7.665,2.558,15.581,0.012,22.478  c8.972,17.182,15.073,37.53,8.937,56.113c-12.005,36.357-57.521,56.43-71.185,61.716c-2.492,0.964-5.119,1.452-7.808,1.452H383.845  c-11.787,0-21.317-9.225-21.695-21.001c-0.397-12.38,1.504-30.882,12.814-48.718c10.491-16.543,24.982-21.922,35.563-25.849  c1.952-0.725,3.667-1.379,5.184-2.003c0.022-0.089,0.034-0.178,0.059-0.268l17.87-63.17c0.68-2.38-1.02-4.76-3.38-4.76h-0.42  c-4.7,0-9.29,1.58-13.08,4.51l-59.68,46.12c-1.51,1.17-3.17,2.08-4.9,2.73c-3.92,1.45-7.82,2.94-11.58,4.76  c-20.7,10.03-54.56,7.89-100.79,16.88c-66.04,12.84-84.65,44.19-87.28,49.29c-0.22,1.75-0.34,3.52-0.34,5.29  c0,2.78,0.28,5.54,0.83,8.23c0.55,2.7,1.37,5.34,2.45,7.87l2.46,5.74c0.88,2.06,0.2,4.49-1.6,5.73c-2.59,1.78-4.14,4.8-4.14,8.05  v11.38v9.75c0,3.69,2.98,6.67,6.66,6.67h37.65c12.15,20.08,34.21,33.5,59.39,33.5c25.19,0,47.25-13.42,59.4-33.5h357.3  c12.15,20.08,34.21,33.5,59.39,33.5c25.19,0,47.25-13.42,59.4-33.5h43.1c3.68,0,6.66-2.98,6.66-6.67v-9.66  c0-3.69-2.98-6.67-6.66-6.67h-1.28c0.83-1.49,1.54-3.05,2.14-4.69L844.229,527.67z M183.685,536.083h-8.835  c-1.609,0-3.03-1.048-3.505-2.586l-4.37-14.149c-0.823-2.666,1.515-5.24,4.248-4.674l10.867,2.249  c1.446,0.299,2.571,1.436,2.856,2.885l2.338,11.901C187.729,533.975,185.994,536.083,183.685,536.083z M298.39,556.75  c-1.82,5.96-4.85,11.39-8.82,16c-2.25,2.62-4.8,4.97-7.59,7c-7.33,5.35-16.35,8.5-26.09,8.5c-9.74,0-18.76-3.15-26.09-8.5  c-2.79-2.03-5.34-4.38-7.59-7c-3.96-4.61-7-10.04-8.81-16c-1.25-4.09-1.92-8.42-1.92-12.92c0-24.49,19.92-44.41,44.41-44.41  c24.49,0,44.42,19.92,44.42,44.41C300.31,548.33,299.64,552.66,298.39,556.75z M774.479,556.75c-1.82,5.96-4.85,11.39-8.82,16  c-2.25,2.62-4.8,4.97-7.59,7c-7.33,5.35-16.35,8.5-26.09,8.5c-9.74,0-18.76-3.15-26.09-8.5c-2.79-2.03-5.34-4.38-7.59-7  c-3.96-4.61-7-10.04-8.81-16c-1.25-4.09-1.92-8.42-1.92-12.92c0-24.49,19.92-44.41,44.41-44.41c24.49,0,44.42,19.92,44.42,44.41  C776.399,548.33,775.729,552.66,774.479,556.75z M829.335,516.211l-14.751,2.287c-1.984,0.308-3.774-1.227-3.774-3.234v-17.741  c0-1.106,0.559-2.137,1.485-2.742l7.793-5.082c1.364-0.89,3.195-0.66,4.251,0.578c5.534,6.489,7.238,17.163,7.753,22.392  C832.262,514.394,831.047,515.946,829.335,516.211z" style="fill:#231F20;"/></svg>